<svg width="520" height="172" viewBox="0 0 520 172" fill="none" xmlns="http://www.w3.org/2000/svg">
<path d="M183.88 81.4798C183.88 80.5198 183.56 79.7198 182.92 79.0798C182.28 78.4398 181.48 78.1198 180.52 78.1198H178.12C175.432 78.1198 173.096 78.2478 171.112 78.5038C169.192 78.7598 167.688 78.9518 166.6 79.0798V104.04H180.04C182.6 104.04 183.88 102.76 183.88 100.2V81.4798ZM166.6 67.0798C172.808 65.7998 178.248 65.1598 182.92 65.1598H186.28C190.632 65.1598 194.12 66.4718 196.744 69.0958C199.368 71.7198 200.68 75.2078 200.68 79.5598V101.64C200.68 106.44 199.304 110.216 196.552 112.968C193.864 115.656 190.12 117 185.32 117H149.8V49.7998H166.6V67.0798Z" fill="black"/>
<path d="M261.171 102.6C261.171 107.4 259.795 111.176 257.043 113.928C254.355 116.616 250.611 117.96 245.811 117.96H223.731C218.931 117.96 215.155 116.616 212.403 113.928C209.715 111.176 208.371 107.4 208.371 102.6V80.5198C208.371 75.7198 209.715 71.9758 212.403 69.2878C215.155 66.5358 218.931 65.1598 223.731 65.1598H245.811C250.611 65.1598 254.355 66.5358 257.043 69.2878C259.795 71.9758 261.171 75.7198 261.171 80.5198V102.6ZM244.371 81.9598C244.371 79.3998 243.091 78.1198 240.531 78.1198H229.011C226.451 78.1198 225.171 79.3998 225.171 81.9598V101.16C225.171 103.72 226.451 105 229.011 105H240.531C243.091 105 244.371 103.72 244.371 101.16V81.9598Z" fill="black"/>
<path d="M298.12 79.0798C294.728 79.0798 290.888 79.7198 286.6 80.9998V117H269.8V66.1198H284.68L285.64 70.9198C288.648 68.9358 291.72 67.4958 294.856 66.5998C298.056 65.6398 300.744 65.1598 302.92 65.1598H307.24C311.592 65.1598 315.08 66.4718 317.704 69.0958C320.328 71.7198 321.64 75.2078 321.64 79.5598V117H304.84V82.4398C304.84 81.4798 304.52 80.6798 303.88 80.0398C303.24 79.3998 302.44 79.0798 301.48 79.0798H298.12Z" fill="black"/>
<path d="M371.549 62.7598C369.693 62.6318 367.229 62.4398 364.157 62.1838C361.085 61.9278 358.429 61.7998 356.189 61.7998C353.949 61.7998 352.509 62.1198 351.869 62.7598C351.229 63.3998 350.909 64.1998 350.909 65.1598V69.9598H366.749V82.9198H350.909V117H334.109V82.9198H327.389V69.9598H334.109V63.2398C334.109 58.8878 335.421 55.3998 338.045 52.7758C340.669 50.1518 344.157 48.8398 348.509 48.8398C352.413 48.8398 356.541 48.9678 360.893 49.2238C365.245 49.4798 368.797 49.6718 371.549 49.7998V62.7598Z" fill="black"/>
<path d="M394.607 68.0398V117H377.807V80.9998H370.607V68.0398H394.607ZM377.807 48.8398H394.607V62.2798H377.807V48.8398Z" fill="black"/>
<path d="M433.518 80.0398C429.486 80.0398 425.326 80.9998 421.038 82.9198V117H404.237V66.1198H419.117L420.078 72.3598C425.582 67.5598 431.342 65.1598 437.358 65.1598H441.677V80.0398H433.518Z" fill="black"/>
<path d="M466.199 77.1598C463.639 77.1598 462.359 78.4398 462.359 80.9998V86.2798H478.679V80.9998C478.679 78.4398 477.399 77.1598 474.839 77.1598H466.199ZM493.559 116.04C481.207 117.32 470.007 117.96 459.959 117.96C455.607 117.96 452.119 116.648 449.495 114.024C446.871 111.4 445.559 107.912 445.559 103.56V80.5198C445.559 75.7198 446.903 71.9758 449.591 69.2878C452.343 66.5358 456.119 65.1598 460.919 65.1598H480.119C484.919 65.1598 488.663 66.5358 491.351 69.2878C494.103 71.9758 495.479 75.7198 495.479 80.5198V98.2798H462.359V102.12C462.359 103.08 462.679 103.88 463.319 104.52C463.959 105.16 464.759 105.48 465.719 105.48C472.055 105.48 481.335 105 493.559 104.04V116.04Z" fill="black"/>
<path fill-rule="evenodd" clip-rule="evenodd" d="M2.53659 86C-0.0589509 86 -0.96997 82.4502 1.26985 81.1373C41.565 57.5173 63.2131 29.9459 77.9454 1.37214C78.9611 -0.597944 81.827 -0.413425 82.456 1.71233C90.2142 27.935 88.3436 56.0451 83.8854 83.0753C83.6332 84.6043 84.8074 86 86.3553 86L107.463 86C110.059 86 110.97 89.5498 108.73 90.8628C68.435 114.483 46.7869 142.054 32.0546 170.628C31.0389 172.598 28.173 172.413 27.544 170.288C19.7858 144.065 21.6564 115.955 26.1146 88.9247C26.3668 87.3957 25.1926 86 23.6447 86L2.53659 86Z" fill="#EB661B"/>
</svg>
